<?xml version="1.0" encoding="UTF-8"?>
<svg xmlns="http://www.w3.org/2000/svg" width="1120" height="880" viewBox="0 0 1120 880"
     role="img" aria-labelledby="diagramTitle diagramDesc" preserveAspectRatio="xMidYMid meet">
  <title id="diagramTitle">一人公司基础设施架构图（EasyOPC）</title>
  <desc id="diagramDesc">分五层展示 AI 员工层、能力与数据层、生产与自动化层、获客与变现层、基础环境，
  标注 EasyIndie 自研项目（EasyTeam、EasyProject、EasyAI、EasyContentCreator、EasyIndieSkill、
  EasyGithub、EasyGate、EasyAndroid、EasyNet、EasyWork）与第三方集成，并以数据反馈闭环收口。</desc>
  <style>
    svg {
      --tx:#0d1117; --tx2:#59647a; --bd:#e7e9ee; --bd2:#d5d9e0;
      --band:#f8f9fb; --card:#ffffff; --ac:#4f46e5; --acs:#eef1ff; --rail:#b9c0cd; --bg:#ffffff;
      font-family:-apple-system,BlinkMacSystemFont,"Segoe UI","PingFang SC","Hiragino Sans GB","Microsoft YaHei",Roboto,sans-serif;
    }
    @media (prefers-color-scheme: dark) {
      svg {
        --tx:#e9edf3; --tx2:#a4aebd; --bd:#232936; --bd2:#333b4a;
        --band:#0e1116; --card:#12151c; --ac:#818cf8; --acs:#1c2033; --rail:#3a4253; --bg:#0a0c10;
      }
    }
    text { fill: var(--tx); }
    .bgfill { fill: var(--bg); }
    .h1 { font-size:26px; font-weight:700; letter-spacing:-.4px; }
    .h2 { font-size:14px; fill:var(--tx2); }
    .band { fill:var(--band); stroke:var(--bd); stroke-width:1; }
    .card { fill:var(--card); stroke:var(--bd); stroke-width:1; }
    .badge { fill:var(--ac); }
    .num { fill:#fff; font-size:13px; font-weight:700; }
    .ly { font-size:15px; font-weight:700; }
    .lys { font-size:11.5px; fill:var(--tx2); }
    .sep { stroke:var(--bd2); stroke-width:1; }
    .ct { font-size:14px; font-weight:650; }
    .cd { font-size:11.5px; fill:var(--tx2); }
    .pill-s { fill:var(--acs); stroke:var(--ac); stroke-width:1; }
    .pill-n { fill:var(--band); stroke:var(--bd2); stroke-width:1; }
    .pill-t { font-size:10.5px; font-weight:600; fill:var(--ac); }
    .pill-tn { font-size:10.5px; font-weight:600; fill:var(--tx2); }
    .leg { font-size:11.5px; fill:var(--tx2); }
    .sw-in { fill:var(--ac); }
    .sw-out { fill:var(--card); stroke:var(--bd2); stroke-width:1.5; }
    .fb-band { fill:var(--acs); stroke:var(--ac); stroke-width:1.2; stroke-dasharray:5 4; }
    .fbico { fill:none; stroke:var(--ac); stroke-width:1.5; }
    .fbico-head { fill:var(--ac); }
    .fb-t { font-size:14px; font-weight:700; }
    .fbs { font-size:11.5px; fill:var(--tx2); }
    .rail { fill:none; stroke:var(--ac); stroke-width:1.4; stroke-dasharray:5 4; }
    .rail-head { fill:var(--ac); }
    .railtx { font-size:11px; fill:var(--ac); }
    .foot { font-size:11.5px; fill:var(--tx2); }
  </style>
<rect x="0.0" y="0.0" width="1120.0" height="880.0" rx="0.0" class="bgfill"/>
<text x="28.0" y="46.0" class="h1">一人公司基础设施架构</text>
<text x="28.0" y="72.0" class="h2">一个人 + 一群 AI 员工 + 一套自动化系统 = 可持续运营的公司</text>
<circle cx="964.5" cy="92.0" r="5" class="sw-out"/>
<text x="975.5" y="100.0" class="leg">第三方工具 / 集成</text>
<circle cx="836.8" cy="92.0" r="5" class="sw-in"/>
<text x="847.8" y="100.0" class="leg">EasyIndie 自研</text>
<rect x="28.0" y="122.0" width="1048.0" height="112.0" rx="14.0" class="band"/>
<circle cx="52.0" cy="154.0" r="13" class="badge"/>
<text x="52.0" y="159.0" class="num" text-anchor="middle">1</text>
<text x="76.0" y="152.0" class="ly">AI 员工层</text>
<text x="76.0" y="174.0" class="lys">数字员工 · 承担执行</text>
<line x1="184.0" y1="138.0" x2="184.0" y2="218.0" class="sep"/>
<rect x="198.0" y="136.0" width="207.0" height="84.0" rx="10.0" class="card"/>
<text x="211.0" y="162.0" class="ct">开发 Agent</text>
<text x="211.0" y="184.0" class="cd">代码 · 调试 · 测试 · 部署</text>
<rect x="417.0" y="136.0" width="207.0" height="84.0" rx="10.0" class="card"/>
<text x="430.0" y="162.0" class="ct">内容 / 研究 Agent</text>
<text x="430.0" y="184.0" class="cd">脚本 · 素材 · 调研 · 分析</text>
<rect x="636.0" y="136.0" width="207.0" height="84.0" rx="10.0" class="card"/>
<text x="649.0" y="162.0" class="ct">团队编排</text>
<text x="649.0" y="184.0" class="cd">角色定义 · 工作流 · 协作</text>
<rect x="649.0" y="192.0" width="62.7" height="17.0" rx="8.5" class="pill-s"/>
<text x="656.0" y="204.4" class="pill-t">EasyTeam</text>
<rect x="855.0" y="136.0" width="207.0" height="84.0" rx="10.0" class="card"/>
<text x="868.0" y="162.0" class="ct">工程规范</text>
<text x="868.0" y="184.0" class="cd">AI Native 目录与协作标准</text>
<rect x="868.0" y="192.0" width="81.0" height="17.0" rx="8.5" class="pill-s"/>
<text x="875.0" y="204.4" class="pill-t">EasyProject</text>
<rect x="28.0" y="252.0" width="1048.0" height="112.0" rx="14.0" class="band"/>
<circle cx="52.0" cy="284.0" r="13" class="badge"/>
<text x="52.0" y="289.0" class="num" text-anchor="middle">2</text>
<text x="76.0" y="282.0" class="ly">能力与数据层</text>
<text x="76.0" y="304.0" class="lys">模型 · 知识 · 数据</text>
<line x1="184.0" y1="268.0" x2="184.0" y2="348.0" class="sep"/>
<rect x="198.0" y="266.0" width="280.0" height="84.0" rx="10.0" class="card"/>
<text x="211.0" y="292.0" class="ct">大模型能力</text>
<text x="211.0" y="314.0" class="cd">Claude / GPT / Gemini 统一接入</text>
<rect x="211.0" y="322.0" width="50.5" height="17.0" rx="8.5" class="pill-s"/>
<text x="218.0" y="334.4" class="pill-t">EasyAI</text>
<rect x="490.0" y="266.0" width="280.0" height="84.0" rx="10.0" class="card"/>
<text x="503.0" y="292.0" class="ct">知识库</text>
<text x="503.0" y="314.0" class="cd">Obsidian / Notion / Outline</text>
<rect x="782.0" y="266.0" width="280.0" height="84.0" rx="10.0" class="card"/>
<text x="795.0" y="292.0" class="ct">共享存储 · SSOT</text>
<text x="795.0" y="314.0" class="cd">NAS · SMB/WebDAV/API · 单一事实源</text>
<rect x="28.0" y="382.0" width="1048.0" height="112.0" rx="14.0" class="band"/>
<circle cx="52.0" cy="414.0" r="13" class="badge"/>
<text x="52.0" y="419.0" class="num" text-anchor="middle">3</text>
<text x="76.0" y="412.0" class="ly">生产与自动化层</text>
<text x="76.0" y="434.0" class="lys">内容 · 工程 · 运营</text>
<line x1="184.0" y1="398.0" x2="184.0" y2="478.0" class="sep"/>
<rect x="198.0" y="396.0" width="280.0" height="84.0" rx="10.0" class="card"/>
<text x="211.0" y="422.0" class="ct">内容生产流水线</text>
<text x="211.0" y="444.0" class="cd">选题→脚本→分镜→视频→发布</text>
<rect x="211.0" y="452.0" width="123.6" height="17.0" rx="8.5" class="pill-s"/>
<text x="218.0" y="464.4" class="pill-t">EasyContentCreator</text>
<rect x="340.6" y="452.0" width="99.3" height="17.0" rx="8.5" class="pill-s"/>
<text x="347.6" y="464.4" class="pill-t">EasyIndieSkill</text>
<rect x="490.0" y="396.0" width="280.0" height="84.0" rx="10.0" class="card"/>
<text x="503.0" y="422.0" class="ct">工程自动化</text>
<text x="503.0" y="444.0" class="cd">Issue → Actions → Agent → PR</text>
<rect x="503.0" y="452.0" width="74.9" height="17.0" rx="8.5" class="pill-s"/>
<text x="510.0" y="464.4" class="pill-t">EasyGithub</text>
<rect x="782.0" y="396.0" width="280.0" height="84.0" rx="10.0" class="card"/>
<text x="795.0" y="422.0" class="ct">运营工作流</text>
<text x="795.0" y="444.0" class="cd">n8n / Make · 触发器与调度</text>
<rect x="28.0" y="512.0" width="1048.0" height="112.0" rx="14.0" class="band"/>
<circle cx="52.0" cy="544.0" r="13" class="badge"/>
<text x="52.0" y="549.0" class="num" text-anchor="middle">4</text>
<text x="76.0" y="542.0" class="ly">获客与变现层</text>
<text x="76.0" y="564.0" class="lys">流量 · 转化 · 收入</text>
<line x1="184.0" y1="528.0" x2="184.0" y2="608.0" class="sep"/>
<rect x="198.0" y="526.0" width="207.0" height="84.0" rx="10.0" class="card"/>
<text x="211.0" y="552.0" class="ct">入口与官网</text>
<text x="211.0" y="574.0" class="cd">落地页 · 博客 · 登录</text>
<rect x="211.0" y="582.0" width="62.7" height="17.0" rx="8.5" class="pill-s"/>
<text x="218.0" y="594.4" class="pill-t">EasyGate</text>
<rect x="417.0" y="526.0" width="207.0" height="84.0" rx="10.0" class="card"/>
<text x="430.0" y="552.0" class="ct">触达与转化</text>
<text x="430.0" y="574.0" class="cd">邮件 · CRM · 数据分析</text>
<rect x="636.0" y="526.0" width="207.0" height="84.0" rx="10.0" class="card"/>
<text x="649.0" y="552.0" class="ct">支付与结算</text>
<text x="649.0" y="574.0" class="cd">Stripe / PayPal · 订阅</text>
<rect x="855.0" y="526.0" width="207.0" height="84.0" rx="10.0" class="card"/>
<text x="868.0" y="552.0" class="ct">分发与收入</text>
<text x="868.0" y="574.0" class="cd">内容 · 课程 · SaaS · 咨询</text>
<rect x="28.0" y="642.0" width="1048.0" height="112.0" rx="14.0" class="band"/>
<circle cx="52.0" cy="674.0" r="13" class="badge"/>
<text x="52.0" y="679.0" class="num" text-anchor="middle">5</text>
<text x="76.0" y="672.0" class="ly">基础环境</text>
<text x="76.0" y="694.0" class="lys">设备 · 网络 · 运维</text>
<line x1="184.0" y1="658.0" x2="184.0" y2="738.0" class="sep"/>
<rect x="198.0" y="656.0" width="280.0" height="84.0" rx="10.0" class="card"/>
<text x="211.0" y="682.0" class="ct">设备</text>
<text x="211.0" y="704.0" class="cd">Mac / PC / 手机 / NAS</text>
<rect x="211.0" y="712.0" width="81.0" height="17.0" rx="8.5" class="pill-s"/>
<text x="218.0" y="724.4" class="pill-t">EasyAndroid</text>
<rect x="490.0" y="656.0" width="280.0" height="84.0" rx="10.0" class="card"/>
<text x="503.0" y="682.0" class="ct">网络与安全</text>
<text x="503.0" y="704.0" class="cd">防火墙 · VPN · 内网穿透 · 备份</text>
<rect x="503.0" y="712.0" width="56.6" height="17.0" rx="8.5" class="pill-s"/>
<text x="510.0" y="724.4" class="pill-t">EasyNet</text>
<rect x="782.0" y="656.0" width="280.0" height="84.0" rx="10.0" class="card"/>
<text x="795.0" y="682.0" class="ct">开发与运维</text>
<text x="795.0" y="704.0" class="cd">环境配置 · Docker · 监控告警</text>
<rect x="795.0" y="712.0" width="62.7" height="17.0" rx="8.5" class="pill-s"/>
<text x="802.0" y="724.4" class="pill-t">EasyWork</text>
<rect x="28.0" y="776.0" width="1048.0" height="44.0" rx="12.0" class="fb-band"/>
<circle cx="54.0" cy="798.0" r="8" class="fbico"/>
<path d="M 54.0 785.0 l 3.6 5.2 l -7.2 0 z" class="fbico-head"/>
<text x="78.0" y="796.0" class="fb-t">数据反馈闭环</text>
<text x="78.0" y="812.0" class="fbs">用户行为 · 内容表现 · 销售数据 → 持续优化 选题 / 内容 / 产品 / 营销</text>
<path d="M 1076.0 798.0 H 1100.0 V 178.0 H 1090.0" class="rail"/>
<path d="M 1076.0 178.0 l 10 -5 l 0 10 z" class="rail-head"/>
<text x="1106.0" y="477.0" class="railtx"  transform="rotate(-90 1106.0 477.0)">优化回流</text>
<text x="28.0" y="850.0" class="foot">EasyIndie · EasyOPC — 用一个人 + AI，做一支团队的事。</text>
</svg>
